<?xml version="1.0" encoding="utf-8"?>
<!-- Generator: Adobe Illustrator 23.0.3, SVG Export Plug-In . SVG Version: 6.00 Build 0)  -->
<svg version="1.1" id="Calque_1" xmlns="http://www.w3.org/2000/svg" xmlns:xlink="http://www.w3.org/1999/xlink" x="0px" y="0px"
	 viewBox="0 0 595.28 841.89" style="enable-background:new 0 0 595.28 841.89;" xml:space="preserve">
<style type="text/css">
	.st0{fill:#313131;}
	.st1{fill:#98B884;}
	.st2{fill:#7B9E79;}
	.st3{fill:#FAFBF9;}
	.st4{fill:#3C3C3C;}
</style>
<g>
	<path class="st0" d="M43.19,408.88c0.4-11.51,1.85-22.9,3.79-34.25c3.32-19.49,9.17-38.23,16.97-56.34
		c6.76-15.71,14.97-30.77,25.03-44.53c10.82-14.81,22.69-28.77,36.49-41.2c17.46-15.74,36.29-29.07,57.06-39.99
		c15.71-8.26,32.21-14.54,49.15-19.13c14.38-3.89,29.07-7.25,44.25-7.84c5.7-0.22,11.56,0.04,17.26-1.1
		c6.26,0.08,12.53,0.17,18.79,0.25c23.51-0.07,46.33,4.58,68.62,11.4c17.74,5.43,34.38,13.42,50.59,22.81
		c11.67,6.76,23.04,13.75,33.62,21.99c13.48,10.5,25.62,22.4,36.65,35.57c12.21,14.58,22.93,30.07,31.47,46.98
		c8,15.84,14.97,32.09,19.31,49.47c2.22,8.88,4.44,17.72,5.81,26.75c1.35,8.88,2.24,17.77,2.25,26.82c0.01,4.87,0.6,9.86,0.72,14.81
		c0.36,14.94-2.15,29.61-4.04,44.34c-0.14,1.12-0.91,1.7-1.79,2.2c-0.64-4.21,0.73-8.24,1.15-12.35c0.89-8.68,1.17-8.92-6.97-11.66
		c-14.6-4.92-29.57-8.27-45.03-9.07c-4.31-11.42-8.54-22.88-12.95-34.26c-2.01-5.19-2.4-12.48-6.64-14.92
		c-4.27-2.46-10.99-0.47-16.61-0.82c-3.31-0.21-4.4,1.23-5.49,4.09c-6.47,17.04-13.2,33.98-19.84,50.95
		c-13.76,2.7-26.88,7.21-39.28,13.78c-3.11-8.93-9.21-15.15-17.97-19.14c0.74-0.85,1.1-1.43,1.61-1.8
		c14.56-10.62,12.66-37.71-9.62-44.94c-9.23-2.99-18.7-2.9-28.18-2.81c-2.92,0.03-4.4-0.26-4.37-3.91
		c0.17-20.16,0.03-40.33,0.02-60.5c0-1.29-0.56-2.9,0.78-3.72c6.13-3.76,4.51-9.23,3.47-14.66c-1.89-9.93-1.03-19.9-0.61-29.94
		c3.96,6.76,5.77,14.07,7.21,21.54c1.82,9.43,2.72,19.11,6.93,27.94c1.31,2.75,2.67,5.42,6.68,4.52c3.68-0.83,4.67-3.4,4.81-6.58
		c0.56-12.43-2.85-23.92-8.17-35.02c-5.13-10.72-13.32-19.45-18.96-29.86c-2.62-4.84-7.73-5.03-11.86-1.3
		c-3.75,3.39-5.06,7.64-4.64,12.58c0.57,6.79,1.41,13.82,0.7,20.39c-1.33,12.34-1.25,24.32,0.76,36.57
		c2.92,17.77,2.09,35.86,2.66,53.8c1.05,32.63,0.78,65.3,1.07,97.96c-3.41,0.59-5.74-1.95-8.61-2.94c-3.5-1.2-6.36-4.12-10.41-3.82
		c-4.18-1.55-7.76-4.52-12.31-5.17c-11.57-5.87-23.85-9.54-36.56-11.89c0.38-3.18,3.38-2.19,5.08-2.89
		c12.6-5.2,19.39-16.11,18.89-31.01c-0.44-13.32-8.08-23.09-21.07-27.12c-8.46-2.62-17.19-3.79-25.91-4.94
		c-2.46-0.33-2.98-1.09-2.63-3.46c0.79-5.28,2.79-10.31,3.53-15.53c1.98-13.98,5.51-27.66,7.81-41.57c0.21-1.3,1.01-2.1,1.98-2.73
		c1.89-1.21,2.47-2.9,2.47-5.08c0.01-13.32,1.51-26.44,4.73-39.41c1.31-5.26-2.45-11.42-7.17-13.6c-4.46-2.05-8.66-0.63-12.95,4.54
		c-2.47,2.98-5.54,5.28-8.53,7.64c-12.96,10.26-22.96,22.55-27.47,38.81c-0.64,2.32-0.79,4.54-0.65,6.88
		c0.19,3.16,2.16,4.62,4.86,5.63c2.54,0.96,4.62,0.31,6.32-1.58c1.43-1.6,2.85-3.28,3.94-5.12c5.8-9.76,8.56-20.89,13.75-30.93
		c1.67-3.24,3.34-6.46,7.31-9.61c-1.45,12.17-3.11,22.82-7.24,32.87c-1.23,2.98-1.04,5.42,1.3,7.08c3.08,2.17,2.86,4.75,2.42,7.88
		c-3.71,26.52-8.68,52.85-10.98,79.59c-1,11.68-3.66,23.22-5.57,34.83c-10.88-2.11-21.88-2.56-32.92-2.46
		c-1.43-1.23-3.17-0.75-4.76-0.76c-15.56-0.05-31.12,0.11-46.68-0.12c-3.47-0.05-4.75,1.1-4.73,4.29c-10.2,1.41-20.2,3.8-30.15,6.38
		c-1.93,0.5-3.82,1.2-5.83,0.4c-5.89-27.01,11.97-48.29,39.57-47.06c10.43,0.47,19.36,4.55,26.72,11.87
		c2.21,2.2,3.63,2.64,5.89,0.04c2.94-3.38,6.29-6.41,9.56-9.48c1.7-1.59,2.22-2.55,0.22-4.67c-19.5-20.74-55.9-24.73-79.33-8.51
		c-21.1,14.61-29.09,37.75-22.37,64.74c-9.17,5.65-18.94,9.97-29.22,13.14c-2.36-12.77-3.73-25.68-5.09-38.59
		c-0.19-1.8,0.06-3.65,0.11-5.48C44.57,420.21,44.55,414.55,43.19,408.88z"/>
	<path class="st1" d="M267.96,450.95c12.71,2.34,24.99,6.02,36.56,11.89c0.38,2.24,2.26,3.1,3.85,4.27c2.55,1.85,5.22,3.6,7.5,5.75
		c5.71,5.37,5.56,8.67-0.65,13.29c-4.68,3.49-9.21,7.15-13.45,11.15c-3.95,3.74-5.36,8.21-3.79,13.62c1.61,5.53,5.06,9.73,9.3,13.32
		c8.04,6.81,17.08,12.12,26.57,16.6c3.91,1.84,5.11,4.47,5.15,8.61c0.23,28.13,0.44,56.27,1.17,84.39
		c0.22,8.36-0.32,15.87-7.31,21.53c-0.62,0.5-1.01,1.32-1.4,2.05c-1.48,2.77-0.98,4.48,2.51,4.48c1.17,0,2.37,0.16,3.49-0.08
		c5.19-1.13,7.53,1.08,7.52,6.2c-1.46,2.1-3.32,2.77-6.01,3.03c-11.16,1.06-22.28,2-33.52,1.97c-13.43-0.03-26.79-0.45-40.14-2.11
		c-18.02-2.23-35.33-7.22-52.44-13.01c-5.98-2.02-11.74-4.69-17.66-6.9c-2.16-0.8-3.52-2.17-4.41-4.18
		c3.59-9.43,5.18-9.61,12.63-6.67c1.91,0.75,4.69,1.22,5.88-1.03c1.03-1.94-0.89-3.64-2.1-5.23c-1.72-2.24-3.34-4.57-5.06-6.82
		c-1.08-1.41-1.5-2.89-1.19-4.66c2.48-14.25,5.28-28.45,7.3-42.77c3.66-25.85,9.11-51.38,13.45-77.11c1.6-9.51,1.36-9.69,10.65-8.33
		c3.01,0.44,4.21-0.17,4.61-3.27c1.18-9.05,2.51-18.09,4.02-27.1c0.82-4.89,0.7-10.02,2.86-14.78c1.67,1,1.96,2.32,2.4,3.58
		c4.21,11.75,9.02,23.32,12.45,35.28c2.31,8.04,5.72,12.91,14.72,12.34c2.43-0.16,4.96,0.54,7.38,1.11c3.83,0.91,4.3-0.31,3.04-3.74
		c-4.6-12.49-9.04-25.04-13.43-37.6C269.38,457.07,267.81,454.23,267.96,450.95z"/>
	<path class="st2" d="M504.33,434.81c15.46,0.8,30.42,4.15,45.03,9.07c8.13,2.74,7.86,2.98,6.97,11.66
		c-0.42,4.11-1.79,8.14-1.15,12.35c-2.02,20.6-8.97,39.74-17.91,58.15c-7.48,15.41-16.3,30.05-26.58,43.87
		c-6.21,8.35-13.56,15.62-20,23.71c-1.69,2.12-3.46,4.6-6.76,4.52c-4.88-1.06-9.81-1.91-14.62-3.22
		c-20.71-5.62-41.11-12.25-61.6-18.6c-19.22-5.96-38.11-12.59-56.35-21.09c-1.83-0.85-3.25-1.71-3.22-3.88
		c0.24-17.67-1.53-35.26-2.02-52.9c-0.08-2.89,1.07-3.74,3.82-3.7c6.83,0.11,13.66,0.15,20.49-0.07
		c11.69-0.38,21.95-3.93,28.76-14.19c5.49-8.26,6.13-17.39,4.33-26.86c12.4-6.58,25.52-11.08,39.28-13.79
		c-6.85,18.13-13.7,36.26-20.71,54.84c6.74,0,12.72-0.04,18.71,0.02c2.16,0.02,3.28-0.9,4.03-2.92c1.96-5.31,4.28-10.49,6.14-15.83
		c1.05-3.01,2.72-4.05,5.89-4c10.33,0.17,20.66,0.08,30.99,0.05c9.27-0.02,9.2-0.02,12.65,8.49c1.87,4.6,2.2,10.8,6.04,13.37
		c4.02,2.68,10.02,0.77,15.15,0.85c6,0.09,6.09-0.16,3.91-5.72C518.51,470.94,511.42,452.88,504.33,434.81z"/>
	<path class="st1" d="M48.16,469.94c10.28-3.18,20.05-7.5,29.22-13.14c0.68,1.82,1.27,3.69,2.06,5.46
		c10.42,23.5,28.87,34.81,54.2,35.2c20.36,0.31,36.46-7.68,47.25-25.38c6.07-9.96,8.23-20.93,8.38-32.41
		c11.04-0.1,22.04,0.35,32.92,2.46c-2.08,17-6.11,33.66-9.15,50.49c-2.51,13.91-6.17,27.61-8.52,41.54
		c-3.93,23.28-7.73,46.62-10.57,70.05c-1.32,10.9-3.97,19.3-16.17,21.28c-0.76,0.12-1.38,0.98-2.15,1.15
		c-1.79,0.39-4.1,0.4-4.15,2.71c-0.05,2.19,2.39,2.47,3.95,3.28c0.88,0.45,1.87,0.7,2.83,0.97c7.76,2.24,7.77,2.24,7.85,10.11
		c-3.47,3.83-6.63-0.15-8.67-1.35c-18.96-11.12-37.24-23.19-53.22-38.57c-12.26-11.8-23.61-24.35-33.72-37.96
		c-13.35-17.97-23.73-37.67-31.65-58.57C54.26,495.15,50.37,482.77,48.16,469.94z"/>
	<path class="st3" d="M403.52,453.63c1.81,9.48,1.16,18.6-4.33,26.86c-6.81,10.26-17.08,13.81-28.76,14.19
		c-6.82,0.22-13.66,0.18-20.49,0.07c-2.75-0.04-3.9,0.81-3.82,3.7c0.48,17.64,2.25,35.24,2.02,52.9c-0.03,2.17,1.39,3.03,3.22,3.88
		c18.24,8.5,37.13,15.13,56.35,21.09c20.49,6.35,40.89,12.98,61.6,18.6c4.81,1.31,9.75,2.16,14.62,3.22
		c-4.16,8.33-12.8,11.73-19.39,17.36c-1.55,1.33-3.01,3.56-5.58,3.58c-16.39-6.43-32.84-12.72-49.15-19.34
		c-19.22-7.8-37.25-18.14-56.12-26.71c-4.09-1.86-5.07-1.29-5.01,3.15c0.24,16.98,0.11,33.97,0.35,50.95
		c0.24,17.61-2.79,13.53,12.33,24.15c1.54,1.08,3.88,1.75,3.46,4.32c-0.44,2.68-3.14,1.97-4.78,2.84c-0.57,0.3-1.28,0.44-1.93,0.48
		c-5.69,0.29-7.85,3.47-7.36,8.87c-1.93,0.06-3.85,0.13-5.78,0.19c0.02-5.12-2.32-7.33-7.52-6.2c-1.12,0.24-2.32,0.08-3.49,0.08
		c-3.49,0-3.99-1.71-2.51-4.48c0.39-0.73,0.78-1.55,1.4-2.05c6.99-5.66,7.53-13.17,7.31-21.53c-0.73-28.12-0.94-56.26-1.17-84.39
		c-0.03-4.14-1.24-6.76-5.15-8.61c-9.49-4.48-18.53-9.79-26.57-16.6c-4.23-3.59-7.69-7.78-9.3-13.32
		c-1.57-5.41-0.16-9.88,3.79-13.62c4.24-4,8.77-7.66,13.45-11.15c6.21-4.63,6.35-7.92,0.65-13.29c-2.28-2.15-4.95-3.89-7.5-5.75
		c-1.6-1.16-3.47-2.02-3.85-4.27c4.56,0.65,8.14,3.61,12.31,5.17c0.53,3.94,4.18,5.27,6.57,7.57c3.92,3.76,4.68,6.8,1.64,11.31
		c-3.44,5.09-7.22,9.96-10.68,15.04c-3.6,5.28-3.26,9.18,0.9,13.98c4.71,5.42,10.98,8.52,17.29,11.53c5.11,2.44,5.34,2.24,5.47-3.46
		c0.36-16.45-2.79-32.75-2.16-49.21c-0.28-32.66-0.02-65.33-1.07-97.96c-0.58-17.93,0.25-36.02-2.66-53.8
		c-2.01-12.25-2.09-24.24-0.76-36.57c0.71-6.57-0.13-13.59-0.7-20.39c-0.42-4.94,0.89-9.19,4.64-12.58
		c4.13-3.73,9.24-3.54,11.86,1.3c5.63,10.41,13.82,19.14,18.96,29.86c5.32,11.1,8.73,22.59,8.17,35.02
		c-0.14,3.18-1.13,5.75-4.81,6.58c-4.01,0.9-5.36-1.77-6.68-4.52c-4.22-8.83-5.11-18.51-6.93-27.94
		c-1.44-7.47-3.25-14.77-7.21-21.54c-0.42,10.04-1.28,20.01,0.61,29.94c1.03,5.43,2.66,10.9-3.47,14.66
		c-1.34,0.82-0.78,2.43-0.78,3.72c0.01,20.17,0.15,40.33-0.02,60.5c-0.03,3.65,1.44,3.94,4.37,3.91c9.48-0.09,18.94-0.18,28.18,2.81
		c22.28,7.22,24.19,34.32,9.62,44.94c-0.51,0.37-0.86,0.96-1.61,1.8C394.31,438.47,400.41,444.7,403.52,453.63z M356.66,461
		c0,16.25,0,16.25,16.02,12.48c0.32-0.08,0.63-0.2,0.95-0.28c6.32-1.67,10.09-5.68,10.39-11.08c0.33-5.89-3.27-11-9.26-13.39
		c-5.08-2.03-10.4-1.87-15.71-2.06c-2.2-0.08-2.4,1.17-2.39,2.84C356.69,453.35,356.66,457.17,356.66,461z M356.7,416.26
		c0.01,0,0.02,0,0.03,0c0,3,0.01,6-0.01,9c-0.01,1.16-0.18,2.16,1.44,2.66c9.57,2.95,19.2-4.59,17.84-14.07
		c-0.91-6.34-7.13-9.92-16.61-8.84c-5.94,0.68-1.28,5.62-2.64,8.29C356.36,414.08,356.7,415.26,356.7,416.26z"/>
	<path class="st3" d="M186.13,643.71c-0.09-7.87-0.09-7.87-7.85-10.11c-0.96-0.28-1.95-0.52-2.83-0.97
		c-1.57-0.8-4.01-1.09-3.95-3.28c0.06-2.31,2.36-2.33,4.15-2.71c0.76-0.16,1.39-1.02,2.15-1.15c12.19-1.98,14.84-10.38,16.17-21.28
		c2.85-23.43,6.64-46.76,10.57-70.05c2.35-13.93,6.01-27.63,8.52-41.54c3.04-16.83,7.07-33.49,9.15-50.49
		c1.91-11.61,4.56-23.15,5.57-34.83c2.3-26.73,7.27-53.07,10.98-79.59c0.44-3.13,0.65-5.71-2.42-7.88c-2.34-1.65-2.53-4.1-1.3-7.08
		c4.14-10.05,5.79-20.7,7.24-32.87c-3.97,3.14-5.64,6.37-7.31,9.61c-5.19,10.04-7.94,21.17-13.75,30.93
		c-1.09,1.84-2.51,3.52-3.94,5.12c-1.69,1.89-3.78,2.54-6.32,1.58c-2.7-1.01-4.66-2.47-4.86-5.63c-0.14-2.34,0-4.56,0.65-6.88
		c4.51-16.26,14.51-28.55,27.47-38.81c2.99-2.37,6.06-4.66,8.53-7.64c4.29-5.17,8.49-6.59,12.95-4.54c4.73,2.17,8.48,8.34,7.17,13.6
		c-3.23,12.97-4.72,26.09-4.73,39.41c0,2.18-0.58,3.87-2.47,5.08c-0.97,0.63-1.77,1.43-1.98,2.73c-2.29,13.91-5.83,27.59-7.81,41.57
		c-0.74,5.22-2.75,10.25-3.53,15.53c-0.35,2.37,0.16,3.13,2.63,3.46c8.72,1.16,17.45,2.33,25.91,4.94
		c12.99,4.02,20.62,13.79,21.07,27.12c0.5,14.89-6.29,25.81-18.89,31.01c-1.7,0.7-4.7-0.29-5.08,2.89
		c-0.15,3.28,1.43,6.12,2.46,9.07c4.39,12.57,8.83,25.11,13.43,37.6c1.26,3.43,0.8,4.65-3.04,3.74c-2.42-0.58-4.95-1.27-7.38-1.11
		c-9,0.58-12.41-4.29-14.72-12.34c-3.43-11.97-8.24-23.54-12.45-35.28c-0.45-1.25-0.73-2.58-2.4-3.58
		c-2.16,4.76-2.05,9.89-2.86,14.78c-1.5,9.01-2.83,18.05-4.02,27.1c-0.41,3.1-1.6,3.71-4.61,3.27c-9.3-1.36-9.05-1.18-10.65,8.33
		c-4.34,25.73-9.78,51.26-13.45,77.11c-2.03,14.31-4.82,28.52-7.3,42.77c-0.31,1.77,0.12,3.26,1.19,4.66
		c1.72,2.25,3.34,4.57,5.06,6.82c1.21,1.58,3.13,3.29,2.1,5.23c-1.2,2.25-3.97,1.78-5.88,1.03c-7.45-2.94-9.04-2.76-12.63,6.67
		C189.23,645.78,187.68,644.75,186.13,643.71z M258.65,429.94c7.68,0.22,11.3-2.02,12.53-7.71c1.87-8.71-2.37-13.17-15.61-15.07
		c-7.56-1.09-5.62-3.18-7.65,9.35c-0.05,0.33-0.06,0.66-0.11,0.99C246.02,429.58,246.02,429.58,258.65,429.94z"/>
	<path class="st2" d="M350.74,667.8c-0.49-5.4,1.67-8.58,7.36-8.87c0.65-0.03,1.36-0.18,1.93-0.48c1.64-0.87,4.34-0.16,4.78-2.84
		c0.42-2.57-1.92-3.24-3.46-4.32c-15.12-10.62-12.08-6.54-12.33-24.15c-0.23-16.98-0.11-33.97-0.35-50.95
		c-0.06-4.43,0.92-5,5.01-3.15c18.87,8.56,36.9,18.91,56.12,26.71c16.31,6.62,32.76,12.9,49.15,19.34c0.47,2.14-0.75,3.46-2.31,4.54
		c-21.19,14.71-43.8,26.67-68.16,35.28c-11.82,4.18-24.04,6.79-36.16,9.78C351.55,668.88,351.11,668.39,350.74,667.8z"/>
	<path class="st2" d="M311.97,164.74c-6.26-0.08-12.53-0.16-18.79-0.25C299.45,163.86,305.73,163.31,311.97,164.74z"/>
	<path class="st4" d="M43.19,408.88c1.35,5.67,1.38,11.34-0.01,17C43.18,420.21,43.19,414.54,43.19,408.88z"/>
	<path class="st3" d="M189.28,439.67c-0.16,11.49-2.31,22.45-8.38,32.41c-10.79,17.7-26.89,25.69-47.25,25.38
		c-25.34-0.39-43.79-11.7-54.2-35.2c-0.79-1.78-1.38-3.64-2.06-5.46c-6.72-26.99,1.27-50.13,22.37-64.74
		c23.42-16.22,59.83-12.23,79.33,8.51c1.99,2.12,1.47,3.08-0.22,4.67c-3.27,3.07-6.62,6.11-9.56,9.48
		c-2.26,2.59-3.68,2.16-5.89-0.04c-7.36-7.32-16.3-11.41-26.72-11.87c-27.59-1.23-45.45,20.05-39.57,47.06
		c6.37,17.74,19.83,27.7,38.37,27.56c11.77-0.09,21.8-4.17,27.88-15.18c1.33-2.42,1.33-3.5-1.92-3.45
		c-7.82,0.12-15.64-0.12-23.45,0.04c-3.23,0.06-4.45-1.02-4.38-4.29c0.08-3.81-0.32-7.63-0.52-11.45c-0.02-3.2,1.26-4.34,4.73-4.29
		c15.56,0.22,31.12,0.07,46.68,0.12C186.11,438.92,187.85,438.44,189.28,439.67z"/>
	<path class="st3" d="M504.33,434.81c7.09,18.06,14.17,36.13,21.26,54.19c2.18,5.56,2.09,5.81-3.91,5.72
		c-5.13-0.08-11.13,1.83-15.15-0.85c-3.84-2.56-4.18-8.76-6.04-13.37c-3.45-8.5-3.38-8.51-12.65-8.49
		c-10.33,0.03-20.67,0.12-30.99-0.05c-3.17-0.05-4.84,0.98-5.89,4c-1.86,5.34-4.17,10.52-6.14,15.83c-0.75,2.01-1.87,2.94-4.03,2.92
		c-5.98-0.07-11.97-0.02-18.71-0.02c7.02-18.58,13.87-36.71,20.71-54.84c6.64-16.97,13.36-33.91,19.84-50.95
		c1.09-2.86,2.18-4.3,5.49-4.09c5.62,0.36,12.35-1.63,16.61,0.82c4.24,2.44,4.64,9.73,6.64,14.92
		C495.79,411.94,500.03,423.39,504.33,434.81z M482.17,432.79c-2.23-5.88-4.46-11.75-6.69-17.63c-0.39,0.07-0.78,0.15-1.16,0.22
		c-2.41,6.51-4.82,13.01-7.23,19.52c-1.83,4.61-3.58,9.25-5.52,13.81c-0.99,2.31-0.19,3,2.04,3c7.46-0.02,14.93-0.02,22.39,0.01
		c2.48,0.01,3.32-0.82,2.29-3.32C486.17,443.23,484.2,438,482.17,432.79z"/>
	<path class="st1" d="M133.1,443.09c0.19,3.82,0.6,7.64,0.52,11.45c-0.07,3.28,1.15,4.36,4.38,4.29c7.81-0.15,15.64,0.08,23.45-0.04
		c3.25-0.05,3.25,1.03,1.92,3.45c-6.08,11.01-16.12,15.09-27.88,15.18c-18.53,0.14-32-9.82-38.37-27.56c2.01,0.8,3.9,0.1,5.83-0.4
		C112.9,446.89,122.9,444.51,133.1,443.09z"/>
	<path class="st1" d="M335.85,474.75c-0.63,16.46,2.52,32.76,2.16,49.21c-0.12,5.7-0.36,5.9-5.47,3.46
		c-6.31-3.01-12.58-6.11-17.29-11.53c-4.16-4.8-4.5-8.7-0.9-13.98c3.46-5.08,7.24-9.94,10.68-15.04c3.04-4.51,2.29-7.55-1.64-11.31
		c-2.39-2.29-6.04-3.62-6.57-7.57c4.04-0.3,6.91,2.62,10.41,3.82C330.11,472.8,332.44,475.35,335.85,474.75z"/>
	<path class="st4" d="M356.66,461c0-3.83,0.03-7.66-0.01-11.49c-0.01-1.67,0.18-2.92,2.39-2.84c5.31,0.18,10.63,0.03,15.71,2.06
		c5.99,2.39,9.59,7.5,9.26,13.39c-0.3,5.4-4.07,9.41-10.39,11.08c-0.32,0.08-0.63,0.21-0.95,0.28
		C356.66,477.26,356.66,477.26,356.66,461z"/>
	<path class="st0" d="M356.7,416.26c0-1-0.34-2.17,0.06-2.97c1.36-2.66-3.3-7.61,2.64-8.29c9.47-1.09,15.7,2.5,16.61,8.84
		c1.36,9.48-8.27,17.02-17.84,14.07c-1.62-0.5-1.45-1.49-1.44-2.66c0.02-3,0.01-6,0.01-9C356.72,416.26,356.71,416.26,356.7,416.26z
		"/>
	<path class="st0" d="M258.65,429.94c-12.63-0.36-12.63-0.36-10.84-12.45c0.05-0.33,0.06-0.66,0.11-0.99
		c2.02-12.52,0.08-10.43,7.65-9.35c13.24,1.9,17.48,6.36,15.61,15.07C269.96,427.92,266.33,430.16,258.65,429.94z"/>
	<path class="st2" d="M482.17,432.79c2.03,5.21,3.99,10.44,6.12,15.61c1.03,2.5,0.19,3.33-2.29,3.32
		c-7.46-0.04-14.93-0.03-22.39-0.01c-2.23,0.01-3.02-0.68-2.04-3c1.94-4.56,3.69-9.2,5.52-13.81
		C472.12,434.19,477.52,436.16,482.17,432.79z"/>
	<path class="st4" d="M482.17,432.79c-4.65,3.37-10.06,1.4-15.08,2.11c2.41-6.51,4.82-13.01,7.23-19.52
		c0.39-0.07,0.78-0.15,1.16-0.22C477.72,421.04,479.95,426.91,482.17,432.79z"/>
</g>
</svg>
